<svg id="Layer_1" data-name="Layer 1" xmlns="http://www.w3.org/2000/svg" viewBox="0 0 332.31 87.18"><defs><style>.cls-1,.cls-6{fill:#fcc560;}.cls-1,.cls-2,.cls-3,.cls-4,.cls-6,.cls-8{stroke:#231f20;stroke-miterlimit:10;}.cls-2,.cls-5{fill:none;}.cls-3{fill:#ee6848;}.cls-4{fill:#4dc2d7;}.cls-6{font-size:102.64px;font-family:Roboto-Medium, Roboto;font-weight:500;}.cls-7{font-size:22px;font-family:RobotoCondensed-Bold, Roboto Condensed;font-weight:700;}.cls-7,.cls-8{fill:#231f20;}</style></defs><title>RVL_Edited</title><path class="cls-1" d="M140.5,6.3c.26,0,.47,0,.65.35,1.24,2.42,2.38,4.89,3.76,7.24a23.94,23.94,0,0,0,1.12,2.2c.27.36,0,.62-.12.87-.5,1-1,2-1.56,3.05-.92,1.78-1.83,3.57-2.77,5.35-1.25,2.37-2.55,4.73-3.79,7.11-1.07,2.06-2.09,4.14-3.14,6.22-.25.49-.55,1-.81,1.44-1.24,2.36-2.43,4.76-3.72,7.1s-2.37,4.55-3.57,6.82-2.38,4.43-3.43,6.71c-.27.57-.63,1.1-.92,1.66-1,2-1.93,4-3,5.86-1.43,2.55-2.62,5.22-4.14,7.72-.42.7-.57,1.55-1.23,2.11a.79.79,0,0,1-.55-.57,11.24,11.24,0,0,0-.75-1.7c-1.27-2.2-2.45-4.45-3.59-6.73-.61-1.23-1.24-2.45-1.88-3.66-1.28-2.44-2.58-4.87-3.86-7.31-1.07-2-2.12-4.11-3.2-6.16-.42-.8-1-1.56-1.31-2.38s-.82-1.68-1.22-2.52c-.81-1.71-1.78-3.34-2.66-5s-1.71-3.46-2.66-5.14c-1.55-2.79-2.79-5.74-4.46-8.47-.29-.47-.8-1-.74-1.66a3.29,3.29,0,0,1,1.2-.09c2.4,0,4.8,0,7.2,0a16.48,16.48,0,0,1,2.63.06,1.71,1.71,0,0,0,.33,1.1c.83,1.48,1.59,3,2.35,4.5,1.33,2.6,2.74,5.15,4.09,7.74,1,2,1.94,4,3.13,5.84.21.32.16.79.6,1a10.93,10.93,0,0,0,1,2.28c1.31,2.44,2.66,4.86,3.87,7.35.11.22.15.56.49.62s.33-.31.45-.52c1.75-3.37,3.5-6.73,5.28-10.09.87-1.64,1.71-3.29,2.58-4.93,1.71-3.2,3.32-6.46,5.05-9.64,1.06-1.95,1.94-4,3-5.92,1.37-2.41,2.49-4.95,3.87-7.36.82-1.44,1.55-2.94,2.31-4.42,1.37-2.67,2.87-5.28,4.12-8"/><path class="cls-2" d="M140.5,6.3c.26,0,.47,0,.65.35,1.24,2.42,2.38,4.89,3.76,7.24a23.94,23.94,0,0,0,1.12,2.2c.27.36,0,.62-.12.87-.5,1-1,2-1.56,3.05-.92,1.78-1.83,3.57-2.77,5.35-1.25,2.37-2.55,4.73-3.79,7.11-1.07,2.06-2.09,4.14-3.14,6.22-.25.49-.55,1-.81,1.44-1.24,2.36-2.43,4.76-3.72,7.1s-2.37,4.55-3.57,6.82-2.38,4.43-3.43,6.71c-.27.57-.63,1.1-.92,1.66-1,2-1.93,4-3,5.86-1.43,2.55-2.62,5.22-4.14,7.72-.42.7-.57,1.55-1.23,2.11a.79.79,0,0,1-.55-.57,11.24,11.24,0,0,0-.75-1.7c-1.27-2.2-2.45-4.45-3.59-6.73-.61-1.23-1.24-2.45-1.88-3.66-1.28-2.44-2.58-4.87-3.86-7.31-1.07-2-2.12-4.11-3.2-6.16-.42-.8-1-1.56-1.31-2.38s-.82-1.68-1.22-2.52c-.81-1.71-1.78-3.34-2.66-5s-1.71-3.46-2.66-5.14c-1.55-2.79-2.79-5.74-4.46-8.47-.29-.47-.8-1-.74-1.66a3.29,3.29,0,0,1,1.2-.09c2.4,0,4.8,0,7.2,0a16.48,16.48,0,0,1,2.63.06,1.71,1.71,0,0,0,.33,1.1c.83,1.48,1.59,3,2.35,4.5,1.33,2.6,2.74,5.15,4.09,7.74,1,2,1.94,4,3.13,5.84.21.32.16.79.6,1a10.93,10.93,0,0,0,1,2.28c1.31,2.44,2.66,4.86,3.87,7.35.11.22.15.56.49.62s.33-.31.45-.52c1.75-3.37,3.5-6.73,5.28-10.09.87-1.64,1.71-3.29,2.58-4.93,1.71-3.2,3.32-6.46,5.05-9.64,1.06-1.95,1.94-4,3-5.92,1.37-2.41,2.49-4.95,3.87-7.36.82-1.44,1.55-2.94,2.31-4.42C137.75,11.64,139.25,9,140.5,6.3Z"/><path class="cls-3" d="M98,26.79a16.48,16.48,0,0,0-2.63-.06c-2.4,0-4.8,0-7.2,0a3.14,3.14,0,0,0-1.21.08c0,.69.46,1.19.75,1.66,1.67,2.73,2.91,5.68,4.46,8.47,1,1.68,1.75,3.43,2.66,5.14s1.85,3.29,2.66,5c.4.84.85,1.66,1.22,2.52S99.59,51.18,100,52c1.08,2.05,2.13,4.11,3.2,6.16,1.28,2.44,2.58,4.87,3.86,7.31.64,1.21,1.27,2.43,1.88,3.66,1.14,2.28,2.32,4.53,3.59,6.73a11.24,11.24,0,0,1,.75,1.7.79.79,0,0,0,.55.57c-.14.27-.39.23-.63.23-3.16,0-6.31,0-9.47,0a1,1,0,0,1-1.11-.68c-1.23-2.44-2.5-4.86-3.76-7.28-2.05-3.94-4.07-7.89-6.15-11.81-1.2-2.24-2.33-4.51-3.49-6.76-1.62-3.13-3.29-6.24-4.92-9.36-2.23-4.28-4.44-8.56-6.67-12.84-1.13-2.17-2.31-4.33-3.46-6.5-1-1.92-2-3.85-3-5.78a1.55,1.55,0,0,1-.32-.88c4,0,7.91-.07,11.87-.07q20.26,0,40.54,0a3,3,0,0,1,1.19.08,10,10,0,0,1-1,2c-1.33,2.6-2.68,5.2-4,7.8-.13.26-.26.49-.56.57a3.66,3.66,0,0,0-1.19-.07L98,26.79"/><path class="cls-2" d="M98,26.79a16.48,16.48,0,0,0-2.63-.06c-2.4,0-4.8,0-7.2,0a3.14,3.14,0,0,0-1.21.08c0,.69.46,1.19.75,1.66,1.67,2.73,2.91,5.68,4.46,8.47,1,1.68,1.75,3.43,2.66,5.14s1.85,3.29,2.66,5c.4.84.85,1.66,1.22,2.52S99.59,51.18,100,52c1.08,2.05,2.13,4.11,3.2,6.16,1.28,2.44,2.58,4.87,3.86,7.31.64,1.21,1.27,2.43,1.88,3.66,1.14,2.28,2.32,4.53,3.59,6.73a11.24,11.24,0,0,1,.75,1.7.79.79,0,0,0,.55.57c-.14.27-.39.23-.63.23-3.16,0-6.31,0-9.47,0a1,1,0,0,1-1.11-.68c-1.23-2.44-2.5-4.86-3.76-7.28-2.05-3.94-4.07-7.89-6.15-11.81-1.2-2.24-2.33-4.51-3.49-6.76-1.62-3.13-3.29-6.24-4.92-9.36-2.23-4.28-4.44-8.56-6.67-12.84-1.13-2.17-2.31-4.33-3.46-6.5-1-1.92-2-3.85-3-5.78a1.55,1.55,0,0,1-.32-.88c4,0,7.91-.07,11.87-.07q20.26,0,40.54,0a3,3,0,0,1,1.19.08,10,10,0,0,1-1,2c-1.33,2.6-2.68,5.2-4,7.8-.13.26-.26.49-.56.57a3.66,3.66,0,0,0-1.19-.07Z"/><path class="cls-4" d="M118.85,26.84c.3-.08.43-.31.56-.57,1.33-2.6,2.68-5.2,4-7.81a9.66,9.66,0,0,0,1-2,2.82,2.82,0,0,0-1.19-.08q-20.26,0-40.54,0c-4,0-7.92,0-11.87.07-.15-.59.34-1,.55-1.38,1.44-2.73,2.93-5.43,4.26-8.21a1.31,1.31,0,0,1,1.39-.81q31.23,0,62.44,0c.34,0,.73-.16,1,.22-1.25,2.73-2.76,5.34-4.12,8-.76,1.48-1.49,3-2.31,4.43-1.38,2.4-2.51,4.94-3.87,7.35-1.08,1.93-2,4-3,5.92-1.73,3.18-3.34,6.44-5.05,9.64-.87,1.64-1.71,3.29-2.58,4.93-1.78,3.36-3.53,6.72-5.28,10.09-.12.21-.19.43-.45.52s-.38-.4-.49-.62c-1.21-2.49-2.56-4.91-3.87-7.35a10.93,10.93,0,0,1-1-2.28c.16-.07.21-.21.28-.35,1.07-2.06,2.13-4.12,3.21-6.17q2-3.72,3.94-7.43c.78-1.46,1.44-3,2.28-4.42a2.63,2.63,0,0,0,.65-1.73"/><path class="cls-2" d="M118.85,26.84c.3-.08.43-.31.56-.57,1.33-2.6,2.68-5.2,4-7.81a9.66,9.66,0,0,0,1-2,2.82,2.82,0,0,0-1.19-.08q-20.26,0-40.54,0c-4,0-7.92,0-11.87.07-.15-.59.34-1,.55-1.38,1.44-2.73,2.93-5.43,4.26-8.21a1.31,1.31,0,0,1,1.39-.81q31.23,0,62.44,0c.34,0,.73-.16,1,.22-1.25,2.73-2.76,5.34-4.12,8-.76,1.48-1.49,3-2.31,4.43-1.38,2.4-2.51,4.94-3.87,7.35-1.08,1.93-2,4-3,5.92-1.73,3.18-3.34,6.44-5.05,9.64-.87,1.64-1.71,3.29-2.58,4.93-1.78,3.36-3.53,6.72-5.28,10.09-.12.21-.19.43-.45.52s-.38-.4-.49-.62c-1.21-2.49-2.56-4.91-3.87-7.35a10.93,10.93,0,0,1-1-2.28c.16-.07.21-.21.28-.35,1.07-2.06,2.13-4.12,3.21-6.17q2-3.72,3.94-7.43c.78-1.46,1.44-3,2.28-4.42A2.63,2.63,0,0,0,118.85,26.84Z"/><rect class="cls-5" x="-18.71" y="-28" width="263" height="159"/><path class="cls-4" d="M32.31,50.55h-15v28h-13v-74H31.34q13.31,0,20.55,5.75t7.24,16.63A20.3,20.3,0,0,1,55.4,39.37,23.59,23.59,0,0,1,45,47.08L62.29,77.89v.66H47.86Zm-14-11H32.14q6.82,0,10.66-3.3a11.34,11.34,0,0,0,3.83-9q0-6-3.54-9.28T32.52,14.55H18.29Z"/><text class="cls-6" transform="translate(152.06 79.86) scale(1.11 1)">L</text><rect class="cls-5" x="-18.71" y="-28" width="495.5" height="159"/><text class="cls-7" transform="translate(251.44 27.05)">Robot<tspan x="0" y="26.4">Vision &amp;</tspan><tspan x="0" y="52.8">Learning</tspan></text><rect class="cls-8" x="229.04" y="7.05" width="2.06" height="75"/></svg>